<?xml version="1.0" encoding="UTF-8"?>
<svg xmlns="http://www.w3.org/2000/svg" viewBox="0 0 24 24" width="24" height="24">
  <!-- 背景圆形 -->
  <circle cx="12" cy="12" r="10" fill="#009563" />
  
  <!-- 文档图标 -->
  <path fill="#FFFFFF" d="M8,5h8c1.1,0,2,0.9,2,2v10c0,1.1-0.9,2-2,2H8c-1.1,0-2-0.9-2-2V7C6,5.9,6.9,5,8,5z" />
  
  <!-- 文档横线 -->
  <path fill="#009563" d="M9,9h6v1H9V9z" />
  <path fill="#009563" d="M9,11h6v1H9V11z" />
  <path fill="#009563" d="M9,13h4v1H9V13z" />
  
  <!-- Bayer十字标志 -->
  <path fill="#000000" d="M16,15.5c0,0.55-0.45,1-1,1h-1c-0.55,0-1-0.45-1-1v-1c0-0.55,0.45-1,1-1h1c0.55,0,1,0.45,1,1V15.5z" />
  <path fill="#000000" d="M14.5,14v2h-2v-2H14.5z" />
</svg> 